<svg width="33" height="54" viewBox="0 0 33 54" fill="none" xmlns="http://www.w3.org/2000/svg">
<path d="M18.9166 17.4974C18.3739 16.5614 17.4032 16.0027 16.3232 16.0027C15.2406 16.0027 14.2726 16.5614 13.7299 17.4974L4.3979 33.4974C3.85257 34.4374 3.8499 35.5587 4.39123 36.5C4.93257 37.4414 5.9059 38.0027 6.99123 38.0027H25.6552C26.7406 38.0027 27.7139 37.4414 28.2552 36.5C28.7966 35.5587 28.7939 34.436 28.2472 33.496L18.9166 17.4974ZM26.5219 35.5014C26.4352 35.652 26.1766 36.0027 25.6552 36.0027H6.99123C6.46857 36.0027 6.21124 35.652 6.12457 35.5014C6.0379 35.3507 5.8659 34.952 6.12457 34.5027L15.4579 18.5027C15.7179 18.052 16.1499 18.0027 16.3219 18.0027C16.4939 18.0027 16.9246 18.052 17.1872 18.5027L26.5179 34.5014C26.7792 34.952 26.6072 35.3507 26.5219 35.5014Z" fill="#CC5F00"/>
<path d="M16.3192 30.5974H16.3232C16.8739 30.5974 17.3219 30.152 17.3232 29.6L17.3486 22.044C17.3486 21.492 16.9046 21.0427 16.3526 21.0414H16.3486C15.7979 21.0414 15.3499 21.4867 15.3486 22.0387L15.3232 29.5947C15.3232 30.1467 15.7672 30.596 16.3192 30.5974Z" fill="#CC5F00"/>
<path d="M17.6566 33.004C17.6566 33.74 17.0592 34.3374 16.3232 34.3374C15.5872 34.3374 14.9899 33.74 14.9899 33.004C14.9899 32.268 15.5872 31.6707 16.3232 31.6707C17.0592 31.6707 17.6566 32.268 17.6566 33.004Z" fill="#CC5F00"/>
</svg>
